<svg width="72" height="74" viewBox="0 0 72 74" fill="none" xmlns="http://www.w3.org/2000/svg">
<path d="M55.7088 67.3731C55.8472 66.7564 55.8095 66.1272 55.6081 65.5231C55.067 63.9752 53.4561 63.0314 51.8453 63.3208C50.5743 63.5473 49.5675 64.4534 49.2151 65.6867C47.4029 66.3411 46.4968 68.5183 47.3526 70.255C48.007 71.6393 49.492 72.407 50.9895 72.1427C51.9334 73.0236 53.2674 73.2753 54.4629 72.8223C55.9983 72.2559 56.9044 70.6073 56.5646 69.0091C56.4387 68.3924 56.1493 67.8261 55.7088 67.3731ZM53.733 70.9094C53.2548 71.0856 52.7388 70.9849 52.3739 70.6325C51.9963 70.2801 51.5055 70.0788 51.0147 70.0788C50.31 70.2172 49.5297 70.1291 49.2025 69.3866C48.8753 68.7071 49.2403 67.8387 49.9576 67.5996C50.5491 67.3983 51.0021 66.8949 51.1783 66.2782C51.3168 65.7874 51.7069 65.435 52.2103 65.3469C53.1038 65.1582 53.9344 66.0517 53.7078 66.9326C53.5568 67.5996 53.7456 68.2918 54.2112 68.7826C54.853 69.4244 54.5888 70.6073 53.733 70.9094Z" fill="white"/>
<path d="M71.1625 29.4555L70.0299 27.5426C69.9418 27.3916 69.9166 27.2028 69.9795 27.0266C70.118 26.561 70.1935 26.0702 70.1935 25.5794C70.1935 23.7672 69.2119 22.106 67.6136 21.2377C67.4374 21.137 67.3242 20.9986 67.2738 20.835L66.8208 19.048C66.481 17.4371 64.0018 17.4371 63.6494 19.048L63.1964 20.835C63.1586 20.9986 63.0328 21.1496 62.8566 21.2377C62.4036 21.4894 61.9883 21.804 61.6359 22.1815C61.0822 21.1748 60.4781 20.2057 59.8237 19.2619C62.0764 17.651 63.4355 15.046 63.4355 12.2522C63.4355 7.50779 59.572 3.64429 54.8276 3.64429C51.4297 3.64429 48.3465 5.68301 46.9747 8.7285C43.1112 7.02957 38.8954 6.13606 34.5914 6.13606C21.4026 6.13606 9.68628 14.5175 5.42007 26.9763C5.2313 27.5175 5.52075 28.0963 6.06189 28.2851C6.60303 28.4739 7.18192 28.1844 7.37069 27.6433C11.3475 16.0025 22.2961 8.18736 34.604 8.18736C49.1519 8.18736 61.3213 18.9347 63.1461 33.2812C62.2525 33.9356 61.6736 34.9928 61.6736 36.1757C61.6736 37.4342 62.3155 38.5291 63.2971 39.1709C63.1586 40.9957 62.844 42.8078 62.3658 44.5571C62.0008 45.8282 64.0018 46.3945 64.3416 45.0983C64.8198 43.3616 65.1344 41.562 65.298 39.7624C67.2613 39.7372 68.8469 38.1389 68.8469 36.1757C68.8469 34.2125 67.2361 32.5891 65.2603 32.5891C65.2099 32.5891 65.1722 32.5891 65.1219 32.5891C65.0212 31.8843 64.8953 31.1922 64.7569 30.5C65.3106 30.5629 65.8895 30.5252 66.4307 30.3868C66.5691 30.349 66.7327 30.3868 66.8711 30.4623L68.9476 31.6956C70.3319 32.5891 72.0812 30.8398 71.1877 29.4555H71.1625ZM66.783 36.1757C66.783 37.0189 66.0909 37.7111 65.2477 37.7111C64.4045 37.7111 63.7124 37.0189 63.7124 36.1757C63.7124 35.3325 64.4045 34.6404 65.2477 34.6404C66.0909 34.6404 66.783 35.3325 66.783 36.1757ZM55.2429 14.077C53.2797 12.3026 51.1277 10.8176 48.8247 9.60943C49.8566 7.26868 52.2225 5.69559 54.8276 5.69559C58.4394 5.69559 61.3842 8.64041 61.3842 12.2522C61.3842 14.3916 60.3271 16.4052 58.5904 17.6259C57.571 16.3674 56.451 15.1719 55.2303 14.077H55.2429ZM67.8905 28.7004C67.2864 28.348 66.5943 28.2348 65.9273 28.3984C65.3484 28.562 64.7695 28.4361 64.1906 28.3355C63.7879 26.9386 63.2845 25.5668 62.6804 24.2454C62.9447 23.742 63.36 23.3142 63.8634 23.0373C64.5933 22.6346 65.0967 21.9424 65.2477 21.1496C65.4113 21.9424 65.9021 22.6472 66.632 23.0373C67.5633 23.5407 68.1422 24.5223 68.1422 25.5794C68.1422 25.8689 68.1044 26.1583 68.0163 26.4226C67.7017 27.3664 68.0163 28.3103 68.5575 29.0905L67.8905 28.7004Z" fill="white"/>
<path d="M62.2529 48.0555C61.7369 47.829 61.1329 48.0555 60.8938 48.5841C56.2878 58.9916 45.9557 65.7118 34.5792 65.7118C18.7099 65.7118 5.81056 52.7999 5.81056 36.9432C5.81056 35.2443 5.96158 33.5454 6.25103 31.8842C6.3517 31.3305 5.97416 30.7893 5.42044 30.6886C4.86671 30.588 4.32557 30.9655 4.22489 31.5192C3.91027 33.2937 3.74667 35.1184 3.74667 36.9432C3.74667 41.8764 4.90446 46.646 7.08161 50.9248C6.54047 50.7612 5.96158 50.6983 5.39527 50.736C3.0671 50.8871 1.15422 52.7622 0.940283 55.0778C0.776682 56.9277 1.65761 58.677 3.24328 59.6334C3.38172 59.7215 3.48239 59.8599 3.49498 59.9858C3.52015 60.4388 3.62083 60.9045 3.78443 61.3324C4.57726 63.5095 6.85509 64.7931 9.09517 64.3904C11.2849 64.0129 12.9209 62.2007 13.0719 59.9858C13.0719 59.8599 13.1726 59.7215 13.3236 59.6334C13.3991 59.5831 13.4746 59.5327 13.5627 59.4824C19.2888 64.8435 26.7137 67.7757 34.5918 67.7757C46.7863 67.7757 57.8483 60.5773 62.7941 49.4272C63.0206 48.9113 62.7941 48.3072 62.2655 48.0681L62.2529 48.0555ZM11.0206 59.8348C10.9325 61.1058 10.0013 62.1378 8.74279 62.3517C7.47174 62.5782 6.16293 61.8232 5.70988 60.6024C5.62179 60.3507 5.55887 60.0865 5.54628 59.8222C5.49594 59.0168 5.03031 58.2869 4.31298 57.859C3.40688 57.3053 2.9035 56.3111 2.99159 55.2539C3.11744 53.9326 4.19972 52.8629 5.5337 52.7748C6.06225 52.737 6.57823 52.8503 7.03127 53.102C7.48432 53.3537 8.0003 53.4543 8.50369 53.404C9.53563 55.0274 10.7186 56.5628 12.0526 57.9848C11.4359 58.4253 11.0584 59.1049 11.008 59.8348H11.0206Z" fill="white"/>
<path d="M24.5748 55.5939L33.0946 61.6975C33.5351 62.0121 34.0636 62.1757 34.5796 62.1757C35.0956 62.1757 35.6241 62.0121 36.0646 61.6975L44.5844 55.5939C51.506 50.6356 55.6338 42.6065 55.6338 34.0867V19.9918C55.6338 19.4633 55.3947 18.9851 54.9668 18.6579C54.5389 18.3432 54.0103 18.2426 53.507 18.3936L51.0529 19.1109C46.8748 20.3316 42.3318 19.4633 38.8961 16.7827L35.9891 14.5175C35.1585 13.8757 34.0007 13.8757 33.1701 14.5175L30.263 16.7827C26.8274 19.4507 22.2843 20.319 18.1062 19.1109L15.6522 18.3936C15.1488 18.2426 14.6077 18.3432 14.1924 18.6579C13.7645 18.9725 13.5254 19.4633 13.5254 19.9918V34.0867C13.5254 42.5939 17.6532 50.6356 24.5748 55.5939ZM38.5563 33.8224H42.8477V39.0576H38.5563C37.7132 39.0576 37.0336 39.7372 37.0336 40.5804V44.8718H31.7984V40.5804C31.7984 39.7372 31.1188 39.0576 30.2756 39.0576H25.9842V33.8224H30.2756C31.1188 33.8224 31.7984 33.1428 31.7984 32.2997V28.0083H37.0336V32.2997C37.0336 33.1428 37.7132 33.8224 38.5563 33.8224ZM15.5767 20.5204L17.5399 21.0867C22.3473 22.4836 27.5825 21.4894 31.5341 18.4062L33.3966 16.9589V25.957H31.5215C30.5525 25.957 29.7596 26.7498 29.7596 27.7188V31.7585H25.72C24.7509 31.7585 23.9581 32.5514 23.9581 33.5204V39.3345C23.9581 40.3035 24.7509 41.0964 25.72 41.0964H29.7596V45.1361C29.7596 46.1051 30.5525 46.8979 31.5215 46.8979H33.3966V49.138C33.3966 49.7043 33.8623 50.1699 34.4286 50.1699C34.9949 50.1699 35.4605 49.7043 35.4605 49.138V46.8979H37.3356C38.3047 46.8979 39.0975 46.1051 39.0975 45.1361V41.0964H43.1372C44.1062 41.0964 44.899 40.3035 44.899 39.3345V33.5204C44.899 32.5514 44.1062 31.7585 43.1372 31.7585H39.0975V27.7188C39.0975 26.7498 38.3047 25.957 37.3356 25.957H35.4605V16.7072L37.6502 18.4187C41.6018 21.502 46.8371 22.4962 51.6444 21.0993L53.6076 20.533V34.1119C53.6076 41.9647 49.7945 49.3771 43.414 53.9453L35.6367 59.5204V53.7314C35.6367 53.1651 35.1711 52.6994 34.6047 52.6994C34.0384 52.6994 33.5728 53.1651 33.5728 53.7314V59.5204L25.7955 53.9453C19.415 49.3771 15.6019 41.9647 15.6019 34.1119V20.533L15.5767 20.5204Z" fill="white"/>
<path d="M6.71742 16.1283C7.54801 16.1661 8.36601 15.8514 8.97008 15.2474C9.05817 15.1593 9.17143 15.1089 9.25953 15.1215C10.7571 15.2851 12.2295 14.7692 13.2866 13.6995C14.3437 12.6423 14.8723 11.1699 14.7087 9.67236C14.7087 9.28223 15.1995 9.11863 15.3757 8.79143C16.1811 7.70915 16.1559 6.17381 15.3128 5.12928C14.2557 3.75755 12.0659 3.64429 10.8704 4.89018C10.6816 5.04119 10.6187 5.31806 10.3166 5.26772C8.81906 5.10412 7.35924 5.63267 6.28954 6.68979C5.23242 7.7469 4.70387 9.21931 4.86747 10.7169C4.8423 11.0693 4.43959 11.2329 4.30116 11.5601C3.63417 12.6423 3.73485 14.077 4.55285 15.046C5.09399 15.6878 5.87424 16.078 6.71742 16.1031V16.1283ZM6.05043 12.6549C6.60416 12.076 7.01945 11.3587 6.90619 10.5155C6.8181 9.63461 7.12013 8.77885 7.73678 8.1622C8.35343 7.54555 9.22177 7.23093 10.0901 7.33161C10.9333 7.4197 11.7387 7.0925 12.2295 6.45068C13.0601 5.3684 14.608 6.89114 13.5635 7.7469C12.9091 8.27546 12.5693 9.08088 12.6574 9.89888C12.7455 10.7798 12.4435 11.6356 11.8268 12.2522C11.2102 12.8689 10.3418 13.1709 9.47347 13.0828C8.75614 13.0073 8.03881 13.2716 7.49767 13.8127C6.75517 14.593 5.45895 13.5736 6.03785 12.6675L6.05043 12.6549Z" fill="white"/>
<path d="M19.9802 8.0993C21.956 8.0993 23.5668 6.48846 23.5668 4.51267C23.5668 2.53687 21.956 0.926025 19.9802 0.926025C18.0044 0.926025 16.3936 2.53687 16.3936 4.51267C16.3936 6.48846 18.0044 8.0993 19.9802 8.0993ZM19.9802 2.97733C20.8234 2.97733 21.5155 3.66949 21.5155 4.51267C21.5155 5.35584 20.8234 6.048 19.9802 6.048C19.137 6.048 18.4449 5.35584 18.4449 4.51267C18.4449 3.66949 19.137 2.97733 19.9802 2.97733Z" fill="white"/>
<path d="M18.1189 64.5166C16.1431 64.5166 14.5322 66.1274 14.5322 68.1032C14.5322 70.079 16.1431 71.6899 18.1189 71.6899C20.0947 71.6899 21.7055 70.079 21.7055 68.1032C21.7055 66.1274 20.0947 64.5166 18.1189 64.5166ZM18.1189 69.6386C17.2757 69.6386 16.5835 68.9464 16.5835 68.1032C16.5835 67.2601 17.2757 66.5679 18.1189 66.5679C18.962 66.5679 19.6542 67.2601 19.6542 68.1032C19.6542 68.9464 18.962 69.6386 18.1189 69.6386Z" fill="white"/>
<path d="M12.1658 68.1031C12.8539 68.1031 13.4117 67.5453 13.4117 66.8572C13.4117 66.1691 12.8539 65.6113 12.1658 65.6113C11.4777 65.6113 10.9199 66.1691 10.9199 66.8572C10.9199 67.5453 11.4777 68.1031 12.1658 68.1031Z" fill="white"/>
<path d="M4.89139 20.3065C5.57948 20.3065 6.13728 19.7487 6.13728 19.0606C6.13728 18.3725 5.57948 17.8147 4.89139 17.8147C4.20331 17.8147 3.64551 18.3725 3.64551 19.0606C3.64551 19.7487 4.20331 20.3065 4.89139 20.3065Z" fill="white"/>
</svg>
