<svg width="83" height="76" viewBox="0 0 83 76" fill="none" xmlns="http://www.w3.org/2000/svg">
<path d="M38.0538 45.0034C37.9405 45.0034 37.8399 44.9783 37.7392 44.9154L26.6017 38.4846C26.4004 38.3713 26.2871 38.17 26.2871 37.9434V25.0945C26.2871 24.8679 26.4004 24.6666 26.6017 24.5533L37.7392 18.1225C37.9405 18.0093 38.1671 18.0093 38.3684 18.1225L49.5059 24.5533C49.7072 24.6666 49.8205 24.8679 49.8205 25.0945V37.9434C49.8205 38.17 49.7072 38.3713 49.5059 38.4846L38.3684 44.9154C38.2677 44.9657 38.1671 45.0034 38.0538 45.0034ZM27.5456 37.5911L38.0538 43.6569L48.562 37.5911V25.4594L38.0538 19.3936L27.5456 25.4594V37.5911Z" fill="white"/>
<path d="M48.9766 64.4087C48.8634 64.4087 48.7627 64.3836 48.662 64.3206L37.5246 57.8898C37.3232 57.7766 37.21 57.5752 37.21 57.3487V44.4997C37.21 44.2732 37.3232 44.0719 37.5246 43.9586L48.662 37.5278C48.8634 37.4146 49.0899 37.4146 49.2913 37.5278L60.4287 43.9586C60.6301 44.0719 60.7433 44.2732 60.7433 44.4997V57.3487C60.7433 57.5752 60.6301 57.7766 60.4287 57.8898L49.2913 64.3206C49.1906 64.371 49.0899 64.4087 48.9766 64.4087ZM38.4684 56.9963L48.9766 63.0622L59.4849 56.9963V44.8647L48.9766 38.7989L38.4684 44.8647V56.9963Z" fill="white"/>
<path d="M30.2259 37.5909C29.8735 37.5909 29.5967 37.3141 29.5967 36.9617V25.8746C29.5967 25.5222 29.8735 25.2454 30.2259 25.2454C30.5783 25.2454 30.8551 25.5222 30.8551 25.8746V36.9617C30.8551 37.3141 30.5783 37.5909 30.2259 37.5909Z" fill="white"/>
<path d="M46.3354 27.7623C46.2347 27.7623 46.134 27.7371 46.0459 27.6993L36.2173 22.5774C35.9153 22.4138 35.7894 22.0362 35.953 21.7342C36.1166 21.4322 36.4941 21.3189 36.7962 21.4699L46.6248 26.5919C46.9269 26.7555 47.0527 27.133 46.8891 27.4351C46.7758 27.649 46.5619 27.7748 46.3354 27.7748V27.7623Z" fill="white"/>
<path d="M36.8212 41.3537C36.6072 41.3537 36.3807 41.2404 36.28 41.0265C36.1164 40.7244 36.2297 40.3469 36.5317 40.1833L46.4736 34.7467C46.7631 34.5831 47.1532 34.6838 47.3168 34.9984C47.4804 35.3004 47.3672 35.678 47.0651 35.8416L37.1232 41.2782C37.0351 41.3285 36.9219 41.3537 36.8212 41.3537Z" fill="white"/>
<path d="M26.9165 25.7233C26.8158 25.7233 26.7151 25.6982 26.627 25.6604L14.4702 19.3303C14.1682 19.1667 14.0423 18.7892 14.2059 18.4871C14.3695 18.1851 14.7471 18.0718 15.0491 18.2229L27.2059 24.553C27.508 24.7166 27.6338 25.0941 27.4702 25.3961C27.3569 25.6101 27.143 25.7359 26.9165 25.7359V25.7233Z" fill="white"/>
<path d="M49.1781 25.7236C48.9768 25.7236 48.7628 25.6229 48.6496 25.4342C48.4608 25.1447 48.5489 24.7546 48.8383 24.5658L59.9003 17.5058C60.1897 17.3296 60.5799 17.4051 60.7686 17.6946C60.9574 17.984 60.8693 18.3741 60.5798 18.5629L49.5179 25.6229C49.4172 25.6859 49.304 25.7236 49.1781 25.7236Z" fill="white"/>
<path d="M49.2043 60.6713C49.091 60.6713 48.9904 60.6462 48.9023 60.5833L39.4889 55.2473C39.1869 55.0712 39.0862 54.6936 39.2498 54.4042C39.4134 54.1021 39.8035 53.9889 40.093 54.1651L49.5063 59.501C49.8084 59.6772 49.909 60.0547 49.7454 60.3441C49.6322 60.5455 49.4182 60.6588 49.2043 60.6588V60.6713Z" fill="white"/>
<path d="M60.1025 45.1292C59.8886 45.1292 59.6872 45.0159 59.574 44.8272C59.3978 44.5377 59.4859 44.1476 59.7753 43.9714L71.0386 37.0247C71.3407 36.8485 71.7182 36.9366 71.8944 37.226C72.0706 37.5155 71.9825 37.9056 71.693 38.0818L60.4297 45.0285C60.3291 45.0914 60.2158 45.1166 60.1025 45.1166V45.1292Z" fill="white"/>
<path d="M62.6953 46.7025C62.4814 46.7025 62.28 46.5892 62.1667 46.4004C61.9906 46.0984 62.0786 45.7208 62.3681 45.5447L68.0815 42.0713C68.3836 41.8951 68.7611 41.9832 68.9373 42.2726C69.1135 42.5747 69.0254 42.9522 68.736 43.1284L63.0225 46.6018C62.9218 46.6647 62.8086 46.6899 62.6953 46.6899V46.7025Z" fill="white"/>
<g style="mix-blend-mode:multiply">
<path d="M47.7945 3.37297C62.8207 6.5569 72.3221 15.8318 76.0094 30.9586C76.1478 31.5249 76.5002 32.1416 77.142 32.0032C77.7461 31.8647 77.9726 31.3991 77.8216 30.6188C74.9397 16.4233 63.9533 5.13483 49.8458 1.8754C40.1934 -0.364677 30.2515 1.28392 21.8575 6.54432C13.4509 11.7796 7.59901 19.9848 5.35894 29.6372C5.09466 30.7824 4.90589 31.9654 4.70453 33.2113C4.60386 33.8405 4.4906 34.4949 4.37733 35.1619L4.25149 35.8541L3.20696 34.6837C2.81683 34.2432 2.46446 33.8405 2.09951 33.4756C2.01141 33.3749 1.94849 33.312 1.89815 33.2616C1.73455 33.1358 1.53319 33.0603 1.33184 33.0603C1.29408 33.0603 1.25633 33.0603 1.21858 33.0603C0.966883 33.098 0.752943 33.2113 0.601927 33.4126C0.450911 33.614 0.387988 33.8531 0.425742 34.0922C0.450911 34.3313 0.576757 34.5578 0.778112 34.7089C2.03658 35.9925 3.29505 37.251 4.56611 38.4969C4.6542 38.6101 4.71712 38.673 4.78004 38.7234C4.9814 38.8744 5.22051 38.9247 5.45962 38.8996C5.69873 38.8618 5.91267 38.736 6.0511 38.5472C7.49834 37.1251 8.71905 35.8918 9.83909 34.7592C9.93977 34.6837 9.99011 34.6208 10.053 34.5453C10.3551 34.1426 10.267 33.5637 9.86426 33.249C9.44897 32.9344 8.87007 33.0351 8.56804 33.4252C8.25342 33.7398 8.00173 34.0419 7.73745 34.3691C7.59902 34.5327 7.46059 34.6963 7.32215 34.8599L7.10822 35.099L6.49156 34.6208V34.4698C6.46639 34.2684 6.46639 34.0796 6.49156 33.8783C6.93203 30.2539 7.91364 26.7428 9.39863 23.4204C16.0811 8.65855 31.8623 0.402987 47.8071 3.3478L47.7945 3.37297Z" fill="white"/>
<path d="M82.1886 41.8191C82.1509 41.58 82.025 41.3535 81.8237 41.2025C80.691 40.0447 79.4829 38.8366 78.086 37.4648C77.9979 37.3516 77.9224 37.276 77.8217 37.2131C77.4064 36.9363 76.8276 37.0244 76.5381 37.4522C75.2796 38.7107 74.0589 39.9188 72.8634 41.1396C72.7753 41.2025 72.7501 41.2276 72.7249 41.2528C72.3348 41.6178 72.3222 42.2344 72.6872 42.612C72.7124 42.6371 72.7501 42.6623 72.7753 42.6749L72.9263 42.7756C73.3164 42.9769 73.8198 42.8636 74.1093 42.4987C74.4113 42.1841 74.663 41.882 74.9147 41.58C75.0531 41.4164 75.1915 41.2528 75.33 41.0892L75.5313 40.8501L76.2235 41.3535L76.0976 42.3728C76.0095 43.0147 75.934 43.6439 75.8208 44.2857C72.4103 63.1124 54.2632 75.8733 35.4113 72.7271C24.6137 71.0785 15.15 64.308 10.0783 54.6178C8.40458 51.5723 7.2342 48.3002 6.5798 44.8772C6.5798 44.7639 6.55463 44.6758 6.51688 44.5878C6.44137 44.3612 6.26518 44.1725 6.03866 44.0718C5.91281 44.0089 5.77438 43.9837 5.63595 43.9837C5.53527 43.9837 5.42201 44.0089 5.32133 44.0466C4.84311 44.2228 4.57883 44.7514 4.75502 45.2422L4.80536 45.4687C4.94379 46.1231 5.09481 46.7775 5.25841 47.4193C10.2419 66.7872 30.1006 78.7049 49.5439 74.0611C63.815 70.6255 73.0899 61.489 77.1044 46.9411C77.4568 45.6575 77.6833 44.3235 77.9098 42.9014C78.0231 42.247 78.1238 41.58 78.2622 40.8879L78.3881 40.2083L79.3319 41.2528C79.7094 41.6807 80.0618 42.0834 80.4394 42.4609C80.54 42.5868 80.603 42.6623 80.6785 42.7126C81.0938 43.0147 81.6852 42.9517 81.9999 42.5239C82.1509 42.3225 82.2138 42.0834 82.1761 41.8317L82.1886 41.8191Z" fill="white"/>
</g>
</svg>
