<svg width="64" height="72" viewBox="0 0 64 72" fill="none" xmlns="http://www.w3.org/2000/svg">
<path d="M60.2219 39.3538C64.979 30.5949 64.4001 19.9105 58.7244 11.7178C55.2761 6.73431 50.1542 3.13509 43.9248 1.31031C38.1861 -0.376041 31.7554 -0.413797 25.8154 1.18446C20.2278 2.69462 15.3701 5.53877 11.7457 9.42744C7.75635 13.7062 5.40302 19.1554 4.9248 25.2086C4.89963 25.4603 4.96255 25.6994 5.10098 25.9134L7.84445 30.1167L0.671171 41.4303C0.369139 41.9085 0.469817 42.5378 0.897696 42.8901L5.252 46.5397L3.75442 48.7798C3.41464 49.2832 3.54048 49.9627 4.04387 50.3151L6.00708 51.712L5.18908 52.5048C4.73603 52.9327 4.72344 53.65 5.16391 54.0905C5.22683 54.1534 5.28975 54.2038 5.35268 54.2541L8.24716 56.1544C7.555 60.2067 7.95771 62.862 9.49304 64.2589C10.7012 65.3664 12.4882 65.5803 14.8038 64.9008C14.8541 64.8882 14.8919 64.8756 14.9422 64.8504L22.0777 61.7168C24.4437 64.6868 26.13 67.8456 27.0864 71.1176C27.2249 71.5958 27.6653 71.923 28.1687 71.923L60.159 71.9608C60.7757 71.9608 61.2791 71.4574 61.2791 70.8407C61.2791 70.6016 61.2035 70.3751 61.0777 70.1863C54.584 61.0498 54.2316 48.9182 60.1716 39.4168C60.1716 39.3916 60.1968 39.379 60.2093 39.3538H60.2219ZM53.7408 55.0092C53.8918 60.1941 55.3894 65.2657 58.0825 69.6955L28.9993 69.6704C27.98 66.5745 26.3817 63.5919 24.2045 60.773L35.9586 55.6133C36.525 55.3616 36.7892 54.6946 36.5375 54.1283C36.2859 53.562 35.6189 53.2977 35.0526 53.5494L21.9771 59.288C21.9771 59.288 21.9519 59.3006 21.9267 59.3132L14.099 62.7488C12.6266 63.1641 11.5821 63.1137 11.0032 62.5852C10.4495 62.0818 9.66923 60.5339 10.5879 55.8272C10.676 55.3741 10.4872 54.9211 10.0971 54.6694L7.75635 53.1341L8.5366 52.379C8.98965 51.9511 9.00224 51.2338 8.56177 50.7933C8.51144 50.743 8.4611 50.6926 8.39817 50.6549L6.20844 49.107L7.65567 46.9424C7.97029 46.4642 7.8822 45.8224 7.44174 45.4574L3.07485 41.7953L10.1097 30.7082C10.3488 30.3306 10.3488 29.865 10.1097 29.4874L7.17746 25.0073C8.15907 14.411 15.3198 6.34418 26.3817 3.34903C36.3614 0.655903 49.6508 2.59395 56.8492 13.0015C62.0593 20.4768 62.6004 30.2551 58.2336 38.259C55.1125 43.2803 53.5395 49.107 53.7157 55.0218L53.7408 55.0092ZM56.8996 18.6017L53.4891 18.0605C53.2374 17.2803 52.9228 16.5126 52.5453 15.7827L54.5714 12.9889C54.8986 12.5359 54.8483 11.9192 54.4581 11.5291L50.4562 7.52715C50.0661 7.13702 49.4494 7.08668 48.9964 7.41388L46.2026 9.44002C45.4727 9.06248 44.705 8.74786 43.9248 8.49617L43.3836 5.08572C43.2955 4.54457 42.8299 4.14186 42.2762 4.14186H36.613C36.0593 4.14186 35.5937 4.54457 35.5056 5.08572L34.9645 8.49617C34.1842 8.74786 33.4165 9.06248 32.6866 9.44002L29.8928 7.41388C29.4398 7.08668 28.8231 7.13702 28.433 7.52715L24.4311 11.5291C24.0409 11.9192 23.9906 12.5359 24.3178 12.9889L26.3439 15.7827C25.9664 16.5126 25.6518 17.2803 25.4001 18.0605L21.9896 18.6017C21.4485 18.6898 21.0458 19.1554 21.0458 19.7091V25.3722C21.0458 25.926 21.4485 26.3916 21.9896 26.4797L25.4001 27.0208C25.6518 27.8011 25.9664 28.5688 26.3439 29.2987L24.3178 32.0925C23.9906 32.5455 24.0409 33.1622 24.4311 33.5523L28.433 37.5542C28.8231 37.9444 29.4398 37.9947 29.8928 37.6675L32.6866 35.6413C33.4165 36.0189 34.1842 36.3335 34.9645 36.5852L35.5056 39.9957C35.5937 40.5368 36.0593 40.9395 36.613 40.9395H42.2762C42.8299 40.9395 43.2955 40.5368 43.3836 39.9957L43.9248 36.5852C44.705 36.3335 45.4727 36.0189 46.2026 35.6413L48.9964 37.6675C49.4494 37.9947 50.0661 37.9444 50.4562 37.5542L54.4581 33.5523C54.8483 33.1622 54.8986 32.5455 54.5714 32.0925L52.5453 29.2987C52.9228 28.5688 53.2374 27.8011 53.4891 27.0208L56.8996 26.4797C57.4407 26.3916 57.8434 25.926 57.8434 25.3722V19.7091C57.8434 19.1554 57.4407 18.6898 56.8996 18.6017ZM55.6034 24.4158L52.432 24.9192C51.9915 24.9947 51.6392 25.3093 51.5259 25.7372C51.2365 26.8195 50.8086 27.8514 50.2423 28.8204C50.0158 29.2106 50.0409 29.6888 50.3052 30.0412L52.1929 32.6462L49.5375 35.3016L46.9451 33.4139C46.5801 33.1496 46.1019 33.1244 45.7244 33.3509C44.7554 33.9172 43.7234 34.3451 42.6411 34.6346C42.2132 34.7478 41.886 35.1002 41.8231 35.5407L41.3197 38.712H37.5695L37.0661 35.5407C36.9906 35.1002 36.676 34.7478 36.2481 34.6346C35.1658 34.3451 34.1339 33.9172 33.1648 33.3509C32.7747 33.1244 32.2965 33.1496 31.9441 33.4139L29.3517 35.3016L26.6963 32.6462L28.584 30.0412C28.8483 29.6762 28.8735 29.198 28.6469 28.8204C28.0806 27.8514 27.6528 26.8195 27.3633 25.7372C27.25 25.3093 26.8977 24.9821 26.4572 24.9192L23.2859 24.4158V20.6656L26.4572 20.1622C26.8977 20.0867 27.25 19.7721 27.3633 19.3442C27.6528 18.2619 28.0806 17.2299 28.6469 16.2609C28.8735 15.8708 28.8483 15.3926 28.584 15.0402L26.6963 12.4478L29.3517 9.79239L31.9441 11.6801C32.3091 11.9444 32.7873 11.9695 33.1648 11.743C34.1339 11.1767 35.1658 10.7488 36.2481 10.4594C36.676 10.3461 37.0032 9.99375 37.0661 9.55328L37.5695 6.38194H41.3197L41.8231 9.55328C41.8986 9.99375 42.2132 10.3461 42.6411 10.4594C43.7234 10.7488 44.7554 11.1767 45.7244 11.743C46.1145 11.9695 46.5927 11.9444 46.9451 11.6801L49.5375 9.79239L52.1929 12.4478L50.3052 15.0402C50.0409 15.4052 50.0158 15.8834 50.2423 16.2609C50.8086 17.2299 51.2365 18.2619 51.5259 19.3442C51.6392 19.7721 51.9915 20.0993 52.432 20.1622L55.6034 20.6656V24.4158ZM39.432 15.833C35.7321 15.833 32.7244 18.8282 32.7244 22.5407C32.7244 26.2532 35.7195 29.2483 39.432 29.2483C43.1445 29.2483 46.1397 26.2532 46.1397 22.5407C46.1397 18.8408 43.1319 15.8456 39.432 15.833ZM39.432 26.9957C36.978 26.9957 34.977 25.0073 34.977 22.5407C34.977 20.0867 36.9654 18.0857 39.432 18.0857C41.886 18.0857 43.887 20.0741 43.887 22.5407C43.887 24.9947 41.886 26.9957 39.432 26.9957ZM39.432 12.0576C33.6431 12.0576 28.949 16.7517 28.949 22.5407C28.949 28.3296 33.6431 33.0237 39.432 33.0237C45.221 33.0237 49.9151 28.3296 49.9151 22.5407C49.9151 16.7517 45.221 12.0702 39.432 12.0576ZM39.432 30.7711C34.889 30.7711 31.2016 27.0838 31.2016 22.5407C31.2016 17.9976 34.889 14.3103 39.432 14.3103C43.9751 14.3103 47.6624 17.9976 47.6624 22.5407C47.6624 27.0838 43.9751 30.7711 39.432 30.7711Z" fill="white"/>
</svg>
