<svg width="74" height="74" viewBox="0 0 74 74" fill="none" xmlns="http://www.w3.org/2000/svg">
<path d="M70.4717 51.4049C68.7555 49.2505 66.3211 47.7289 63.631 47.1203L48.0264 43.5783V39.8171C52.1406 37.2366 54.8793 32.6721 54.8793 27.4746V18.309C54.8793 10.2876 48.3551 3.75122 40.3215 3.75122C32.2879 3.75122 25.7637 10.2755 25.7637 18.309V27.4746C25.7637 32.6721 28.5024 37.2366 32.6166 39.8171V43.5783L23.4875 45.6597V42.7384C23.4875 40.3283 21.5278 38.3808 19.1299 38.3808H18.9838V34.9604C18.9838 33.3902 17.7058 32.1122 16.1356 32.1122H7.44471C5.87451 32.1122 4.59644 33.3902 4.59644 34.9604V38.3808H4.45038C2.04031 38.3808 0.0927734 40.3405 0.0927734 42.7384V69.1518C0.0927734 71.5619 2.05248 73.5094 4.45038 73.5094H33.9068C34.698 73.5094 35.3309 72.8764 35.3309 72.0853C35.3309 71.2941 34.698 70.6611 33.9068 70.6611H23.2197C23.3901 70.1864 23.4875 69.6874 23.4875 69.1518V48.581L29.391 47.2421C30.17 52.5734 34.771 56.6876 40.3215 56.6876C45.872 56.6876 50.473 52.5734 51.252 47.2421L63.0103 49.9077C67.2948 50.8815 70.2892 54.6305 70.2892 59.0368V70.6733H46.7484C45.9572 70.6733 45.3242 71.3063 45.3242 72.0974C45.3242 72.8886 45.9572 73.5216 46.7484 73.5216H71.7133C72.5045 73.5216 73.1374 72.8886 73.1374 72.0974V59.0368C73.1374 56.2737 72.188 53.5715 70.4717 51.4171V51.4049ZM7.43254 34.9361H16.1234V38.3564H7.43254V34.9361ZM8.91753 70.649H4.43821C3.6105 70.649 2.92887 69.9673 2.92887 69.1396V42.7262C2.92887 41.8985 3.6105 41.2169 4.43821 41.2169H19.1177C19.9454 41.2169 20.6271 41.8985 20.6271 42.7262V69.1396C20.6271 69.9673 19.9454 70.649 19.1177 70.649H8.9297H8.91753ZM40.3093 6.59949C45.6772 6.59949 50.2052 10.2268 51.5807 15.1565C48.9028 14.2192 45.7989 14.8156 43.6567 16.9579C41.7943 18.8203 38.7635 18.8203 36.9011 16.9579C34.7832 14.84 31.7158 14.2314 29.0502 15.1321C30.4378 10.2146 34.9536 6.59949 40.3093 6.59949ZM28.612 27.4624V18.5646C30.4865 17.1283 33.1765 17.2744 34.8927 18.9785C36.3777 20.4635 38.3374 21.206 40.285 21.206C42.2447 21.206 44.1922 20.4635 45.6772 18.9785C47.4056 17.2501 50.1444 17.1283 52.0189 18.6133V27.4624C52.0189 33.9136 46.7727 39.1598 40.3215 39.1598C33.8703 39.1598 28.6241 33.9136 28.6241 27.4624H28.612ZM40.3093 53.815C36.1221 53.815 32.6531 50.6502 32.1784 46.5969L34.345 46.0979C34.9901 45.9518 35.4527 45.3676 35.4527 44.7103V41.1925C36.9742 41.7281 38.6052 42.0202 40.3093 42.0202C42.0134 42.0202 43.6445 41.7281 45.166 41.1925V44.7103C45.166 45.3797 45.6285 45.9518 46.2736 46.0979L48.4403 46.5969C47.9534 50.6624 44.4965 53.815 40.3093 53.815Z" fill="white"/>
<path d="M43.1808 33.7554C43.7407 33.1955 43.7407 32.2948 43.1808 31.7349C42.6209 31.175 41.7201 31.175 41.1602 31.7349C40.6977 32.1974 39.9308 32.1974 39.4561 31.7349C38.8962 31.175 37.9955 31.175 37.4356 31.7349C36.8756 32.2948 36.8756 33.1955 37.4356 33.7554C38.2267 34.5466 39.2614 34.9361 40.3082 34.9361C41.355 34.9361 42.3896 34.5466 43.1808 33.7554Z" fill="white"/>
<path d="M40.3206 70.6611C39.9433 70.6611 39.5781 70.8194 39.3103 71.075C39.0425 71.3428 38.8965 71.7079 38.8965 72.0853C38.8965 72.4626 39.0547 72.8278 39.3103 73.0955C39.5781 73.3633 39.9433 73.5094 40.3206 73.5094C40.698 73.5094 41.0631 73.3512 41.3309 73.0955C41.5987 72.8278 41.7448 72.4626 41.7448 72.0853C41.7448 71.7079 41.5865 71.3428 41.3309 71.075C41.0631 70.8072 40.698 70.6611 40.3206 70.6611Z" fill="white"/>
<path d="M15.003 54.5085H10.4872L12.1912 49.591C12.4469 48.8485 12.0573 48.033 11.3149 47.7774C10.5724 47.5218 9.75682 47.9113 9.50121 48.6538L7.13983 55.458C6.99376 55.8962 7.05462 56.3709 7.32241 56.7482C7.59019 57.1255 8.02839 57.3446 8.47876 57.3446H12.9946L11.2905 62.2621C11.0349 63.0046 11.4244 63.8202 12.1669 64.0758C12.3251 64.1245 12.4834 64.1488 12.6294 64.1488C13.2259 64.1488 13.7736 63.7837 13.9805 63.1872L16.3419 56.383C16.488 55.9448 16.4271 55.4701 16.1593 55.0928C15.8916 54.7155 15.4534 54.4964 14.9908 54.4964L15.003 54.5085Z" fill="white"/>
<path d="M11.8624 5.95439L12.4953 5.32145V15.2417C12.4953 16.0329 13.1283 16.6658 13.9195 16.6658C14.7106 16.6658 15.3436 16.0329 15.3436 15.2417V5.32145L15.9765 5.95439C16.2565 6.23435 16.6217 6.36825 16.9868 6.36825C17.352 6.36825 17.7171 6.23435 17.9971 5.95439C18.557 5.39448 18.557 4.49375 17.9971 3.93383L14.9297 0.86647C14.3698 0.306554 13.4691 0.306554 12.9092 0.86647L9.84181 3.93383C9.2819 4.49375 9.2819 5.39448 9.84181 5.95439C10.4017 6.51431 11.3025 6.51431 11.8624 5.95439Z" fill="white"/>
<path d="M2.51472 18.9786L3.14766 18.3456V26.5861C3.14766 27.3773 3.78062 28.0103 4.5718 28.0103C5.36299 28.0103 5.99593 27.3773 5.99593 26.5861V18.3456L6.62888 18.9786C6.90884 19.2585 7.274 19.3924 7.63916 19.3924C8.00433 19.3924 8.36949 19.2585 8.64945 18.9786C9.20936 18.4187 9.20936 17.5179 8.64945 16.958L5.58208 13.8906C5.02216 13.3307 4.12143 13.3307 3.56152 13.8906L0.494156 16.958C-0.0657602 17.5179 -0.0657602 18.4187 0.494156 18.9786C1.05407 19.5385 1.95481 19.5385 2.51472 18.9786Z" fill="white"/>
</svg>
